<?xml version="1.0" encoding="UTF-8"?>
<svg xmlns="http://www.w3.org/2000/svg" xmlns:xlink="http://www.w3.org/1999/xlink" width="96pt" height="96pt" viewBox="0 0 96 96" version="1.1">
<g id="surface1">
<path style=" stroke:none;fill-rule:nonzero;fill:#FF3D00;fill-opacity:1;" d="M 18 36 L 78 36 L 78 56 L 18 56 Z "/>
<path style=" stroke:none;fill-rule:nonzero;fill:#FF3D00;fill-opacity:1;" d="M 12 62 L 84 62 L 84 86 L 12 86 Z "/>
<path style=" stroke:none;fill-rule:nonzero;fill:#FFF8E1;fill-opacity:1;" d="M 60 64 L 80 64 L 80 74 L 60 74 Z "/>
<path style=" stroke:none;fill-rule:nonzero;fill:#6D4C41;fill-opacity:1;" d="M 40 72 L 56 72 L 56 86 L 40 86 Z "/>
<path style=" stroke:none;fill-rule:nonzero;fill:#FFF8E1;fill-opacity:1;" d="M 16 64 L 36 64 L 36 74 L 16 74 Z "/>
<path style=" stroke:none;fill-rule:nonzero;fill:#3E2723;fill-opacity:1;" d="M 40 72 L 56 72 L 56 76 L 40 76 Z "/>
<path style=" stroke:none;fill-rule:nonzero;fill:#FFF8E1;fill-opacity:1;" d="M 60 40 L 74 40 L 74 50 L 60 50 Z "/>
<path style=" stroke:none;fill-rule:nonzero;fill:#FFF8E1;fill-opacity:1;" d="M 40 40 L 56 40 L 56 50 L 40 50 Z "/>
<path style=" stroke:none;fill-rule:nonzero;fill:#FFF8E1;fill-opacity:1;" d="M 22 40 L 36 40 L 36 50 L 22 50 Z "/>
<path style=" stroke:none;fill-rule:nonzero;fill:#FF3D00;fill-opacity:1;" d="M 42 42 C 42 44.210938 40.210938 46 38 46 C 35.789063 46 34 44.210938 34 42 C 34 39.789063 35.789063 38 38 38 C 40.210938 38 42 39.789063 42 42 Z "/>
<path style=" stroke:none;fill-rule:nonzero;fill:#FF3D00;fill-opacity:1;" d="M 18 42 C 18 39.789063 17.789063 38 20 38 C 22.210938 38 24 39.789063 24 42 C 24 44.210938 22.210938 46 20 46 C 17.789063 46 18 44.210938 18 42 Z "/>
<path style=" stroke:none;fill-rule:nonzero;fill:#FF3D00;fill-opacity:1;" d="M 42.007813 68 C 42.007813 70.210938 40.214844 72 38.007813 72 C 35.796875 72 34.007813 70.210938 34.007813 68 C 34.007813 65.789063 35.796875 64 38.007813 64 C 40.214844 64 42.007813 65.789063 42.007813 68 Z "/>
<path style=" stroke:none;fill-rule:nonzero;fill:#FF3D00;fill-opacity:1;" d="M 62 68 C 62 70.210938 60.210938 72 58 72 C 55.789063 72 54 70.210938 54 68 C 54 65.789063 55.789063 64 58 64 C 60.210938 64 62 65.789063 62 68 Z "/>
<path style=" stroke:none;fill-rule:nonzero;fill:#FF3D00;fill-opacity:1;" d="M 12.007813 68 C 12.007813 65.789063 11.796875 64 14.007813 64 C 16.214844 64 18.007813 65.789063 18.007813 68 C 18.007813 70.210938 16.214844 72 14.007813 72 C 11.796875 72 12.007813 70.210938 12.007813 68 Z "/>
<path style=" stroke:none;fill-rule:nonzero;fill:#FF3D00;fill-opacity:1;" d="M 72 42 C 72 39.789063 73.789063 38 76 38 C 78.210938 38 78 39.789063 78 42 C 78 44.210938 78.210938 46 76 46 C 73.789063 46 72 44.210938 72 42 Z "/>
<path style=" stroke:none;fill-rule:nonzero;fill:#FF3D00;fill-opacity:1;" d="M 77.992188 68 C 77.992188 65.789063 79.785156 64 81.992188 64 C 84.203125 64 83.992188 65.789063 83.992188 68 C 83.992188 70.210938 84.203125 72 81.992188 72 C 79.785156 72 77.992188 70.210938 77.992188 68 Z "/>
<path style=" stroke:none;fill-rule:nonzero;fill:#FF3D00;fill-opacity:1;" d="M 62 42 C 62 44.210938 60.210938 46 58 46 C 55.789063 46 54 44.210938 54 42 C 54 39.789063 55.789063 38 58 38 C 60.210938 38 62 39.789063 62 42 Z "/>
<path style=" stroke:none;fill-rule:nonzero;fill:#455A64;fill-opacity:1;" d="M 30 24 C 30 24 26.019531 30.074219 16 30.074219 C 13.644531 30.074219 8.914063 29.539063 6 28 C 6 28 12.34375 42 26 42 L 70 42 C 83.65625 42 90 28 90 28 C 87.085938 29.539063 82.355469 30.074219 80 30.074219 C 69.816406 30.074219 66 24 66 24 L 66 16 L 30 16 Z "/>
<path style="fill:none;stroke-width:2;stroke-linecap:butt;stroke-linejoin:miter;stroke:#607D8B;stroke-opacity:1;stroke-miterlimit:10;" d="M 16 11 L 16 7 C 16 6.449219 15.550781 6 15 6 C 14.449219 6 14 6.449219 14 7 " transform="matrix(2,0,0,2,0,0)"/>
<path style="fill:none;stroke-width:2;stroke-linecap:butt;stroke-linejoin:round;stroke:#607D8B;stroke-opacity:1;stroke-miterlimit:10;" d="M 32 11 L 32 7 C 32 6.449219 32.449219 6 33 6 C 33.550781 6 34 6.449219 34 7 " transform="matrix(2,0,0,2,0,0)"/>
<path style="fill:none;stroke-width:2;stroke-linecap:butt;stroke-linejoin:miter;stroke:#607D8B;stroke-opacity:1;stroke-miterlimit:10;" d="M 32 9 L 32 17 " transform="matrix(2,0,0,2,0,0)"/>
<path style="fill:none;stroke-width:2;stroke-linecap:butt;stroke-linejoin:miter;stroke:#607D8B;stroke-opacity:1;stroke-miterlimit:10;" d="M 16 17 L 16 9 " transform="matrix(2,0,0,2,0,0)"/>
<path style=" stroke:none;fill-rule:nonzero;fill:#455A64;fill-opacity:1;" d="M 18 54 C 18 54 10.835938 58.664063 2 54 C 2 54 8.34375 68 22 68 L 74 68 C 87.65625 68 94 54 94 54 C 85.164063 58.664063 78 54 78 54 Z "/>
<path style=" stroke:none;fill-rule:nonzero;fill:#DD2C00;fill-opacity:1;" d="M 16 78 L 20 78 L 20 82 L 16 82 Z "/>
<path style=" stroke:none;fill-rule:nonzero;fill:#DD2C00;fill-opacity:1;" d="M 24 78 L 28 78 L 28 82 L 24 82 Z "/>
<path style=" stroke:none;fill-rule:nonzero;fill:#DD2C00;fill-opacity:1;" d="M 32 78 L 36 78 L 36 82 L 32 82 Z "/>
<path style=" stroke:none;fill-rule:nonzero;fill:#DD2C00;fill-opacity:1;" d="M 60 78 L 64 78 L 64 82 L 60 82 Z "/>
<path style=" stroke:none;fill-rule:nonzero;fill:#DD2C00;fill-opacity:1;" d="M 68 78 L 72 78 L 72 82 L 68 82 Z "/>
<path style=" stroke:none;fill-rule:nonzero;fill:#DD2C00;fill-opacity:1;" d="M 76 78 L 80 78 L 80 82 L 76 82 Z "/>
</g>
</svg>
