<svg xmlns="http://www.w3.org/2000/svg" xmlns:xlink="http://www.w3.org/1999/xlink" width="48" height="48" viewBox="0 0 48 48"><path fill="#5D4037" d="M13.003 16H35.003V37H13.003z" transform="translate(-.033 .03)"/><path fill="#D7CCC8" d="M10 19H13V35H10zM21 19L18 19.008 18.014 35.008 21 35.004zM30 19L27 18.996 27.014 34.996 30 35zM35 19H38V35H35z"/><path fill="#8D6E63" d="M40,16.984c0,0.55-0.445,1.015-1,1.016H9.004c-0.552,0.001-1-0.426-1.001-0.977L8,14.034c-0.001-0.551,0.446-0.997,0.998-0.997L38.996,13c0.553-0.001,0.998,0.445,1,0.995L40,16.984z"/><g><path fill="#BCAAA4" d="M42 42L6.022 42 6 39 42 39zM13.993 18.012l.001 1c.001.553-.446.987-.999.988h-3C9.443 20 9.001 19.571 9 19.019v-1L13.993 18.012zM21.999 18L22 18.994c.001.553-.446 1.005-.999 1.006h-3c-.552 0-1-.446-1.001-.999V18H21.999zM30.992 18l.002.991c0 .553-.447 1.009-.999 1.009h-3C26.443 20.001 26 19.551 26 18.998V18H30.992zM39 18v.981C39 19.534 38.547 20 37.995 20h-3C34.443 20.001 34 19.54 34 18.987V18H39zM14 36.012v-1c-.001-.553-.436-1.013-.988-1.012h-3C9.46 34 8.999 34.466 9 35.019v1L14 36.012zM22 36v-.998c-.001-.553-.436-.999-.988-.998l-3 .004c-.552 0-1 .448-.999 1.001L17.015 36H22zM31 36v-1.009C30.999 34.438 30.551 34 29.998 34h-3c-.552.001-.999.445-.998.998L26.001 36H31zM39 36l-.001-1.019C38.998 34.429 38.55 34 37.997 34h-3c-.552.001-.998.435-.997.987V36H39zM42 14L23.978 6 6 14.021 6 16 42 16z"/></g><g><path fill="#A1887F" d="M8.017 36H39.998000000000005V39H8.017zM10.988 14L36.988 14 23.98 8z"/></g></svg>